<?xml version="1.0" standalone="no"?>
<!DOCTYPE svg PUBLIC "-//W3C//DTD SVG 20010904//EN"
 "http://www.w3.org/TR/2001/REC-SVG-20010904/DTD/svg10.dtd">
<svg version="1.0" xmlns="http://www.w3.org/2000/svg"
 width="1038.000000pt" height="1038.000000pt" viewBox="0 0 1038.000000 1038.000000"
 preserveAspectRatio="xMidYMid meet">
<metadata>
Created by potrace 1.14, written by Peter Selinger 2001-2017
</metadata>
<g transform="translate(0.000000,1038.000000) scale(0.100000,-0.100000)"
fill="#000000" stroke="none">
<path d="M6490 10365 c-65 -15 -197 -45 -225 -51 -44 -9 -65 -14 -200 -44 -77
-18 -153 -34 -170 -37 -16 -3 -38 -9 -49 -15 -13 -7 -16 -7 -12 1 5 8 1 8 -16
1 -18 -8 -216 -54 -323 -76 -39 -7 -152 -32 -340 -74 -104 -23 -201 -44 -215
-47 -14 -2 -52 -11 -85 -20 -33 -8 -71 -17 -85 -19 -14 -2 -36 -7 -50 -10 -14
-4 -34 -8 -45 -9 -11 -2 -47 -10 -80 -18 -33 -9 -73 -18 -90 -21 -37 -6 -71
-14 -93 -20 -9 -3 -28 -7 -42 -10 -88 -15 -98 2 132 -227 l210 -209 -1263
-1264 c-1170 -1170 -1308 -1309 -1357 -1374 -9 -13 -32 -40 -49 -60 -18 -20
-33 -40 -33 -44 0 -4 -6 -13 -12 -20 -23 -24 -88 -124 -88 -135 0 -6 -4 -13
-8 -15 -10 -3 -96 -157 -126 -223 -46 -102 -96 -223 -101 -246 -2 -9 -10 -36
-18 -60 -12 -36 -37 -119 -42 -139 0 -3 -5 -23 -10 -45 -5 -22 -9 -42 -10 -45
-2 -9 -18 -94 -20 -110 -9 -64 -18 -118 -22 -135 -9 -40 -11 -442 -2 -510 5
-38 11 -90 14 -115 2 -25 5 -46 6 -47 2 -4 4 -14 13 -63 5 -25 10 -52 11 -60
10 -50 65 -245 82 -290 4 -8 7 -17 7 -20 5 -25 72 -177 80 -182 6 -4 8 -8 4
-8 -11 0 92 -196 157 -295 62 -96 144 -208 157 -213 4 -2 8 -8 8 -13 0 -23
263 -289 356 -359 32 -25 68 -53 79 -63 11 -10 42 -32 70 -50 27 -17 52 -34
55 -37 25 -26 315 -182 324 -173 3 3 6 1 6 -5 0 -7 5 -12 10 -12 6 0 29 -9 53
-19 99 -45 339 -121 434 -137 27 -5 60 -11 88 -17 31 -7 113 -18 200 -27 77
-8 453 -6 505 3 59 10 108 17 146 22 33 4 238 55 324 79 25 7 123 43 155 56
17 7 46 19 65 28 175 73 378 192 525 306 61 47 74 58 124 101 94 81 1238 1231
1254 1260 99 183 110 231 106 453 -1 9 -5 31 -10 47 -4 17 -10 42 -13 57 -7
41 -62 151 -102 205 -172 231 -476 324 -747 230 -37 -13 -73 -29 -79 -35 -7
-7 -16 -12 -21 -12 -31 0 -167 -128 -677 -636 -316 -315 -588 -583 -605 -596
-16 -12 -32 -25 -35 -28 -41 -44 -199 -129 -316 -169 -111 -37 -274 -67 -339
-61 -20 1 -35 1 -57 -1 -12 -1 -95 6 -158 15 -49 6 -176 39 -218 57 -23 10
-44 18 -47 19 -17 0 -181 94 -202 115 -8 8 -17 15 -21 15 -6 0 -23 14 -93 76
-57 50 -179 193 -179 210 0 4 -6 15 -14 23 -23 26 -82 144 -105 207 -53 152
-66 228 -66 394 0 147 7 205 40 317 25 89 113 283 127 283 4 0 8 5 8 11 0 41
113 157 1878 1926 l723 725 209 -210 c198 -198 210 -209 216 -184 3 15 8 33
10 41 2 7 11 48 20 90 22 103 21 99 34 156 12 50 14 61 27 125 4 19 8 37 8 40
1 3 5 23 10 45 13 56 12 55 15 58 1 1 3 11 5 22 1 11 10 54 20 95 9 41 19 86
21 100 3 14 10 43 16 65 5 22 12 49 14 60 1 11 5 27 7 35 2 8 7 33 12 55 14
74 15 76 45 205 11 47 22 96 24 110 2 14 10 54 19 90 9 36 18 76 21 90 2 14
14 68 26 120 12 52 24 109 26 125 3 17 10 48 16 70 5 22 12 49 14 60 2 11 6
31 9 45 4 14 8 36 11 50 3 14 11 50 19 80 7 30 16 73 21 95 8 45 9 49 19 88 4
15 3 27 -1 26 -5 -1 -34 -7 -64 -14z"/>
<path d="M6199 7556 c-2 -2 -31 -7 -64 -10 -103 -11 -129 -15 -231 -37 -54
-11 -108 -22 -119 -23 -35 -6 -290 -94 -361 -126 -154 -68 -372 -189 -382
-212 -2 -5 -10 -8 -17 -8 -8 0 -20 -6 -27 -12 -7 -7 -40 -33 -73 -57 -33 -24
-89 -69 -125 -100 -84 -73 -1206 -1194 -1247 -1246 -87 -113 -132 -241 -134
-387 -2 -93 6 -142 32 -220 68 -198 199 -332 404 -413 82 -33 257 -48 335 -30
14 3 35 8 48 11 51 10 134 47 193 86 44 28 242 218 634 609 314 313 584 580
600 594 50 42 172 123 217 144 24 10 64 28 89 39 56 26 178 60 239 68 25 3 56
7 70 10 66 12 256 3 335 -15 95 -23 114 -28 118 -31 1 -1 9 -3 17 -5 29 -6
125 -47 158 -67 17 -11 32 -17 32 -13 0 3 6 1 13 -5 6 -5 43 -31 80 -56 38
-25 77 -53 86 -62 10 -10 27 -24 37 -33 40 -32 135 -141 172 -196 38 -57 117
-196 113 -201 0 -1 6 -19 14 -39 52 -124 75 -266 70 -433 -4 -129 -6 -153 -20
-210 -3 -14 -8 -36 -11 -49 -3 -13 -9 -31 -13 -40 -5 -9 -9 -18 -8 -21 2 -23
-66 -173 -124 -270 -52 -86 -128 -164 -1877 -1917 l-722 -724 -206 206 c-114
113 -210 205 -214 205 -4 0 -10 -17 -13 -37 -3 -21 -8 -47 -11 -58 -7 -30 -54
-244 -82 -375 -8 -41 -20 -88 -24 -105 -5 -16 -11 -43 -14 -60 -3 -16 -7 -39
-10 -50 -9 -40 -58 -261 -62 -285 -3 -14 -9 -41 -14 -60 -5 -19 -12 -48 -15
-65 -3 -16 -8 -39 -10 -50 -3 -11 -12 -51 -20 -90 -9 -38 -18 -81 -21 -95 -3
-14 -7 -33 -10 -42 -3 -10 -7 -28 -9 -40 -6 -35 -12 -63 -39 -185 -14 -61 -28
-124 -31 -140 -3 -15 -7 -32 -9 -38 -1 -5 -6 -26 -10 -45 -4 -19 -16 -72 -27
-118 -11 -46 -17 -87 -14 -92 4 -6 1 -10 -6 -10 -7 0 -10 -3 -7 -6 3 -3 2 -21
-4 -41 -10 -37 -15 -59 -23 -108 -3 -16 -8 -38 -11 -48 -5 -15 -1 -17 18 -12
13 4 33 8 44 10 10 2 19 4 19 5 0 1 9 3 20 5 39 5 90 16 130 27 22 5 51 12 65
15 22 4 83 17 132 29 27 6 60 13 98 21 19 4 37 8 40 8 5 1 117 26 135 30 6 1
21 5 35 8 14 4 36 9 50 12 14 2 43 9 65 14 22 6 56 13 75 16 19 3 43 8 52 11
26 8 61 15 83 18 11 1 29 5 40 9 11 3 32 9 48 12 27 5 50 10 97 20 39 9 63 14
85 19 11 2 52 11 90 20 39 9 81 18 95 20 14 2 32 7 40 10 15 5 50 13 105 22
17 3 44 9 60 14 17 5 48 12 70 16 48 8 70 12 70 14 0 2 4 3 130 30 132 29 131
29 203 42 34 7 62 15 62 19 0 4 -93 100 -206 213 l-205 206 1255 1255 c690
690 1254 1255 1252 1255 -1 0 21 26 50 58 68 72 74 80 104 122 13 19 32 43 41
54 47 50 239 384 239 414 0 7 5 12 12 12 6 0 8 3 5 6 -4 4 0 19 7 33 29 53 94
231 112 301 2 8 11 44 19 80 21 84 25 100 30 130 2 14 6 36 9 50 3 14 8 45 11
70 3 25 9 68 12 95 15 114 7 540 -12 605 -3 8 -7 33 -10 55 -10 70 -12 77 -49
230 -19 78 -66 217 -91 272 -8 17 -15 34 -15 39 0 15 -114 239 -162 317 -55
91 -152 229 -207 296 -67 82 -266 277 -351 344 -47 38 -94 75 -105 84 -10 9
-28 21 -40 28 -11 6 -53 33 -94 59 -206 136 -452 238 -761 317 -46 11 -133 27
-195 35 -27 3 -59 8 -70 11 -23 6 -470 14 -476 9z"/>
</g>
</svg>
