<?xml version="1.0" encoding="UTF-8"?>
<svg id="Layer_1" data-name="Layer 1" xmlns="http://www.w3.org/2000/svg" viewBox="0 0 365.76 519.48">
  <defs>
    <style>
      .cls-1 {
        fill: #dfba3c;
      }
    </style>
  </defs>
  <path class="cls-1" d="M329.8,177.05c-24.48-24.48-56.72-36.46-88.8-35.95-11.78,.19-23.54,2.06-34.87,5.62-18.28,5.73-35.49,15.84-49.98,30.33l-52.6,52.6c-2.6,2.6-4.68,5.53-6.23,8.65-6.13,12.34-4.06,27.73,6.23,38.02,10.29,10.29,25.67,12.36,38.01,6.23,3.12-1.55,6.05-3.63,8.65-6.23l52.6-52.6c22.17-22.17,58.13-22.17,80.31,0,22.17,22.17,22.17,58.13,0,80.3l-50.28,50.28,.2,.2-72.45,72.45-21.03-21.03-2.39,10.85-14.11,64.07c-.06,.26-.12,.53-.17,.79-2.29,10.39-4.58,20.77-6.87,31.15l-1.47,6.7,6.69-1.48c10.38-2.29,20.77-4.58,31.16-6.87,25.23-5.56,50.47-11.12,75.7-16.68l-21.03-21.03,122.73-122.73c14.49-14.49,24.6-31.69,30.33-49.98,3.29-10.48,5.14-21.32,5.55-32.2,1.24-32.95-10.72-66.31-35.87-91.47Z"/>
  <path class="cls-1" d="M124.76,378.38c11.78-.19,23.54-2.06,34.87-5.62,18.28-5.73,35.49-15.84,49.98-30.33l52.6-52.6c2.6-2.6,4.68-5.53,6.23-8.65,6.13-12.34,4.06-27.73-6.23-38.02-10.29-10.29-25.67-12.36-38.01-6.23-3.12,1.55-6.05,3.63-8.65,6.23l-52.6,52.6c-22.17,22.17-58.13,22.17-80.31,0-22.17-22.17-22.17-58.13,0-80.3l50.28-50.28-.2-.2,72.45-72.45,21.03,21.03,2.39-10.85,14.11-64.07c.06-.26,.12-.53,.17-.79,2.29-10.39,4.58-20.77,6.87-31.15l1.47-6.7-6.69,1.48c-10.38,2.29-20.77,4.58-31.16,6.87-25.23,5.56-50.47,11.12-75.7,16.68l21.03,21.03L35.96,168.78c-14.49,14.49-24.6,31.69-30.33,49.98C2.35,229.24,.5,240.08,.09,250.96c-1.24,32.95,10.72,66.31,35.87,91.47,24.48,24.48,56.72,36.46,88.8,35.95Z"/>
</svg>